<?xml version="1.0" standalone="no"?><!DOCTYPE svg PUBLIC "-//W3C//DTD SVG 1.1//EN" "http://www.w3.org/Graphics/SVG/1.1/DTD/svg11.dtd"><svg t="1670835872500" class="icon" viewBox="0 0 1024 1024" version="1.1" xmlns="http://www.w3.org/2000/svg" p-id="38562" width="128" height="128" xmlns:xlink="http://www.w3.org/1999/xlink"><path d="M604.8 179c11.8-3.8 53.4 57 59.3 65.5 17.3 24.7 32.8 50.9 47.3 77.3 48.8 88.6 87.6 186 101.4 286.6 8 58.1 3.7 119.4-22.7 171.8-58 115.3-202.1 143.7-318.6 115.5-118.9-15.5-243.1-93.8-255.9-222.3-5.8-58.4 12.2-117.1 40.6-168.5 40.5-73.3 94.8-138.5 156.3-195.1C467.1 259.5 533 202 604.8 179z" fill="#FBEFBF" p-id="38563"></path><path d="M484 270.3c6.3 17.1-2.7 36-20.1 42.2s-36.6-2.7-43-19.8 2.7-36 20.1-42.2c17.5-6.2 36.7 2.7 43 19.8z" fill="#FFFFFF" p-id="38564"></path><path d="M723.5 360.2c1.3 136.1-6.2 306.2-139.8 381.4-123.3 69.5-351.2-85.1-367.1-121.6-3.4-7.8-3.3 19.7-3.6 31.6-1.3 44.7 36.4 123.9 90.2 174.9 81.8 77.5 188.9 78.7 244.4 79.3 42 0.4 120.4 1.3 173.2-33.1 109.2-71 126.3-303.7 19.3-563.4-5.4 16.9-11 33.9-16.6 50.9z" fill="#FDBA7F" p-id="38565"></path><path d="M581.9 138.7c-3.3 0.9-6.9 0.7-11.1-0.1 2.6 0.5 2.5 2.5-3.8-1.8 1.3 0.9 6.3 4.3 2 1-4.4-3.4 1 1 2.1 2.1 1.9 1.8 3.7 3.6 5.4 5.5 3.9 4.2 7.6 8.5 11.2 13 1.7 2.1 3.4 4.3 5.1 6.4 1.8 2.3-3.7-4.8-1.9-2.5 0.4 0.6 0.9 1.1 1.3 1.7 1 1.3 1.9 2.5 2.9 3.8 15.2 20.3 29.5 41.3 42.6 62.9 20.7 34.1 39.5 69.4 56.4 105.6 4.1 8.8 8.1 17.7 11.9 26.6 0.5 1.1 1 2.2 1.4 3.4-2.1-5.4-0.9-2.1-0.4-0.9 0.9 2.2 1.9 4.5 2.8 6.7 2 4.8 3.9 9.6 5.7 14.4 7.2 18.4 13.7 37.1 19.5 56 5.8 18.8 10.9 37.9 15.1 57.2 2.1 9.8 4.1 19.6 5.8 29.4 0.8 4.5 1.5 8.9 2.2 13.4 0.4 2.4 0.7 4.8 1 7.2 0.5 3.6-0.6-4.9-0.2-1.4 0.2 1.4 0.4 2.9 0.5 4.3 2.2 18.8 3 37.8 2.2 56.8-0.2 4.4-0.5 8.7-0.8 13.1-0.2 2.3-0.4 4.6-0.7 6.9-0.1 1.2-0.3 2.3-0.4 3.5 0 0.4-0.7 6.1-0.2 1.9 0.5-3.8 0 0-0.2 1-0.2 1.1-0.4 2.3-0.5 3.4-0.4 2.3-0.8 4.6-1.2 6.8-0.9 4.8-2 9.6-3.2 14.4-2.2 9-5 17.8-8.2 26.5-0.7 2-1.3 4.8-2.5 6.5 2.7-3.7 1.3-3 0.5-1.2-0.5 1.1-0.9 2.1-1.4 3.2-1.9 4.1-3.9 8.2-6 12.2-3.4 6.4-7.2 12.7-11.3 18.7-2 3-4.1 5.8-6.2 8.7-1.8 2.5 3.4-4.3 1.5-1.9-0.4 0.5-0.8 1-1.2 1.6l-4.2 5.1c-4.5 5.3-9.3 10.4-14.4 15.2-2.5 2.4-5.1 4.7-7.7 7-1.3 1.1-2.6 2.2-4 3.4-0.9 0.7-6.1 4.8-2.5 2.1 3.5-2.7-0.7 0.5-1.6 1.2l-4.2 3c-3 2.1-6 4.1-9.1 6.1-6 3.8-12.2 7.4-18.5 10.6-2.9 1.5-5.8 2.9-8.7 4.3-1.6 0.7-3.1 1.5-4.7 2.2-0.8 0.4-1.6 0.7-2.4 1-2.8 1.2 5.7-2.3 1.8-0.8-6.5 2.6-13 5-19.6 7.2-13.8 4.5-28 7.9-42.3 10.3-1.5 0.3-3.1 0.5-4.6 0.7-0.9 0.1-7.6 1.1-2.6 0.4 5-0.7-1.7 0.2-2.6 0.3-2 0.2-4 0.5-6 0.6-7.1 0.7-14.2 1.2-21.3 1.5-14.7 0.5-29.3 0.2-43.9-1-3.3-0.3-6.6-0.6-9.9-1-1.8-0.2-3.5-0.4-5.3-0.6-3.2-0.4 5.9 0.8 2.7 0.4-1.1-0.2-2.2-0.3-3.3-0.5-6.9-1-13.8-2.2-20.7-3.7-3.4-0.7-6.8-1.5-10.2-2.3-2.7-0.6-4.5-0.7-7.9-1.2 0.2 0 6.7 1 2.7 0.3l-6-0.9c-7.3-1.2-14.7-2.6-21.9-4.2-14.2-3.2-28.3-7.2-42-12.1-3.5-1.2-6.9-2.5-10.3-3.8-1.7-0.7-3.4-1.3-5.1-2-0.8-0.3-1.7-0.7-2.5-1 1.6 0.6 5.3 2.2 1.5 0.6-6.7-2.9-13.4-6-19.9-9.4-13.2-6.7-25.9-14.3-38-22.8-3-2.1-5.9-4.2-8.8-6.4-1.3-0.9-3.4-3 1.8 1.4-0.7-0.6-1.4-1.1-2.1-1.7-1.6-1.3-3.2-2.5-4.7-3.8-5.5-4.6-10.9-9.4-16-14.4-5.3-5.1-10.3-10.5-15.1-16.1-2.2-2.5-4.2-5.2-6.4-7.7-2-2.4 3.3 4.4 1.5 1.9-0.5-0.7-1.1-1.4-1.6-2.1-1.2-1.6-2.4-3.2-3.5-4.8-8.3-11.8-15.5-24.4-21.4-37.7-2.4-5.4 2.1 5.2-0.1-0.2-0.7-1.7-1.3-3.4-1.9-5-1.3-3.6-2.6-7.3-3.7-10.9-2.2-7-4-14.2-5.4-21.4-0.7-3.7-1.2-7.4-1.9-11.1 0.1 0.3 0.8 6.6 0.3 2.4-0.1-1-0.2-1.9-0.3-2.8-0.2-2.3-0.4-4.5-0.6-6.8-0.7-9.8-0.8-19.7-0.3-29.5 0.2-4.5 0.6-8.9 1.1-13.3 0.1-1.2 0.3-2.4 0.4-3.5 0.5-4.6 0 0.7-0.2 1.3 0.9-2.7 0.9-6 1.4-8.8 1.7-9.4 3.9-18.8 6.5-28s5.7-18.4 9.1-27.3c0.9-2.2 1.7-4.5 2.6-6.7 0.4-1.1 0.9-2.3 1.4-3.3-2.4 5.3-0.9 2.2-0.4 1 2.1-4.7 4.2-9.3 6.4-13.9 16.6-34.1 37.5-66.3 60-96.7 2.6-3.5 5.1-7.1 7.9-10.4-4.2 5.1 0.4-0.5 1.4-1.8 1.8-2.3 3.6-4.6 5.4-6.8 5.8-7.2 11.8-14.4 17.9-21.4 12.4-14.3 25.2-28.1 38.5-41.6 25.8-26 53.1-50.8 81.2-74.3 7-5.9 14.1-11.7 21.3-17.3 0.7-0.5 3.7-2.9 0.9-0.7-2.8 2.2 0.2-0.1 0.9-0.7 1.8-1.4 3.7-2.8 5.5-4.2 3.9-2.9 7.9-5.8 11.8-8.6 14.8-10.5 30.2-20.3 46.2-29 7.9-4.2 15.9-8.1 24-11.8 1.9-0.8 2.5-2.2-1.4 0.6 0.7-0.5 2.3-0.9 3.1-1.3 2-0.8 4.1-1.6 6.1-2.4 4.4-1.8 8.6-3.3 12.7-4.6 12.4-4 21.7-17.5 17.5-30.8-4-12.4-17.4-21.8-30.8-17.5-75.8 24.5-138.3 77.8-196.2 130.6-58.6 53.7-111.4 113.9-152.9 181.9-21.7 35.6-40.3 73.6-50.5 114.2-10.1 40-12 81.8-3.3 122.2 14 65 57.3 118.8 111.2 156 26.7 18.5 56.5 32.6 87.2 43.2 14.4 5 29.1 9.1 44.1 12.2 7.5 1.6 15 2.9 22.6 4 2.1 0.3 14.8 1.9 7.9 1.1-4.9-0.5 1.4 0.6 2.4 0.8 3.6 0.8 7.2 1.6 10.9 2.3 61.7 11.9 127.6 10.3 187.3-10.6C700.2 827 753.6 786 782.8 727.6c19-38.1 28-80.1 29.2-122.6 1.2-41.3-5.3-82.9-14.5-123.1-18.4-81.1-51.2-158.8-90.8-231.7-16.7-30.8-34.8-60.7-55-89.4-13.6-19.3-27.4-39.4-44.5-55.8-10.4-9.9-23.4-18.6-38.5-14.6-12.6 3.4-21.6 18-17.5 30.8 4.2 13 17.2 21.1 30.7 17.5z" fill="#92646E" p-id="38566"></path><path d="M376.8 385.2c-31.8 32.9-50.8 75.5-53.7 121.1-0.8 13.1 12.1 25.6 25 25 14.3-0.6 24.1-11 25-25 0.1-2.2 0.3-4.3 0.5-6.4 0.1-0.5 0.7-5.9 0.1-1.5-0.6 4 0 0.1 0.1-0.7 0.7-4.5 1.6-9 2.7-13.4s2.4-8.8 3.9-13.2c0.7-2 1.4-4.1 2.2-6.1 0.3-0.7 1.8-4.2 0.3-0.8-1.7 3.9 0.5-1.1 0.7-1.5 3.7-8.2 8.1-16 13.1-23.5 1.4-2.1 2.8-4 4.2-6.1 1.9-2.6 0 0.1-0.9 1.1 0.7-0.8 1.4-1.7 2.1-2.6 3.2-3.9 6.5-7.6 10-11.2 9.1-9.4 10.1-26.1 0-35.4-9.7-8.8-25.6-9.8-35.3 0.2z" fill="#FDBA7F" p-id="38567"></path><path d="M481 463.6c-9.7 61-22.5 121.5-38.3 181.3-3.3 12.6 4.2 27.7 17.5 30.8 13.1 3 27.2-3.9 30.8-17.5 15.8-59.8 28.5-120.3 38.3-181.3 1.1-6.9 1.1-13-2.5-19.3-3-5.2-9-10.1-14.9-11.5-12.1-2.7-28.7 3.7-30.9 17.5z" fill="#FDBA7F" p-id="38568"></path><path d="M570.3 288.1c12.4 30.3 22.3 61.6 29.2 93.5 1.6 7.6 3.1 15.1 4.4 22.8 0.7 3.9 1.3 7.9 1.9 11.9 0.3 1.8 0.4 3.7 0.8 5.5 0-0.1-0.6-5-0.3-2.1 0.1 1.2 0.3 2.4 0.5 3.7 1.9 15.7 3 31.6 3.5 47.4 0.5 17.9-0.1 35.7-1.5 53.5-1.1 13.1 12.3 25.6 25 25 14.5-0.6 23.9-11 25-25 5.4-65.7-2.4-132.6-21.1-195.8-5.4-18.2-11.8-36.1-19-53.7-2.6-6.3-5.4-11.4-11.5-14.9-5.4-3.1-13.3-4.5-19.3-2.5-11.8 3.8-22.9 17.8-17.6 30.7z" fill="#FDBA7F" p-id="38569"></path></svg>